<svg width="193" height="65" viewBox="0 0 193 65" fill="none" xmlns="http://www.w3.org/2000/svg">
<path fill-rule="evenodd" clip-rule="evenodd" d="M80.0049 26.7663V10.7725H87.7418C89.8347 10.7725 91.5313 12.4691 91.5313 14.5619V15.7114C91.5313 16.7187 91.1382 17.6342 90.4972 18.313C91.6333 18.9673 92.3982 20.1939 92.3982 21.5991V22.9769C92.3982 25.0697 90.7016 26.7663 88.6087 26.7663H80.0049ZM81.6893 17.8096H87.9154C88.997 17.7214 89.8473 16.8157 89.8473 15.7114V14.5619C89.8473 13.3992 88.9047 12.4566 87.742 12.4566H81.6893V17.8096ZM81.6893 25.0822V19.5009L88.609 19.4939C89.7717 19.4939 90.7142 20.4364 90.7142 21.5991V22.9769C90.7142 24.1396 89.7717 25.0822 88.609 25.0822H81.6893ZM97.2554 10.7725V26.7663H95.4933V10.7725H97.2554ZM105.988 15.0911H104.161C102.056 15.0911 100.35 16.7972 100.35 18.9017V22.9558C100.35 25.0603 102.056 26.7663 104.161 26.7663H105.988C108.092 26.7663 109.799 25.0603 109.799 22.9558V18.9017C109.799 16.7972 108.092 15.0911 105.988 15.0911ZM104.161 16.8533C103.03 16.8533 102.112 17.7704 102.112 18.9017V22.9558C102.112 24.0871 103.03 25.0043 104.161 25.0043H105.988C107.119 25.0043 108.036 24.0871 108.036 22.9558V18.9017C108.036 17.7704 107.119 16.8533 105.988 16.8533H104.161ZM125.204 26.7725V21.0189H127.352L130.674 26.7725H132.709L128.888 20.1544L131.881 14.9705H129.846L127.372 19.2568H125.204V10.7725H123.442V26.7725H125.204ZM119.648 19.2133V18.9017C119.648 17.7703 118.731 16.8532 117.6 16.8532H115.773C114.641 16.8532 113.724 17.7703 113.724 18.9017V22.9558C113.724 24.0871 114.641 25.0042 115.773 25.0042H117.6C118.731 25.0042 119.648 24.0871 119.648 22.9558V22.6441H121.41V22.9558C121.41 25.0603 119.704 26.7663 117.6 26.7663H115.773C113.668 26.7663 111.962 25.0603 111.962 22.9558V18.9017C111.962 16.7972 113.668 15.0911 115.773 15.0911H117.6C119.704 15.0911 121.41 16.7972 121.41 18.9017V19.2133H119.648ZM137.566 26.7663V10.7725H135.804V26.7663H137.566ZM142.555 21.41V22.9558C142.555 24.0871 143.472 25.0042 144.604 25.0042H146.431C147.562 25.0042 148.479 24.0871 148.479 22.9558V22.6441H150.241V22.9558C150.241 25.0603 148.535 26.7663 146.431 26.7663H144.604C142.499 26.7663 140.793 25.0603 140.793 22.9558V18.9017C140.793 16.7972 142.499 15.0911 144.604 15.0911H146.431C148.535 15.0911 150.241 16.7972 150.241 18.9017V19.6479H150.242V21.41H142.555ZM148.479 19.6479H142.555V18.9017C142.555 17.7703 143.472 16.8532 144.604 16.8532H146.431C147.562 16.8532 148.479 17.7703 148.479 18.9017V19.6479ZM153.968 17.7357H152.4V15.9736H153.968V13.1259H155.652V15.9736H159.729V17.7357H155.652V23.4128C155.652 24.3347 156.399 25.0821 157.321 25.0821C158.243 25.0821 158.991 24.3347 158.991 23.4128V23.0622H160.675V23.4128C160.675 25.2649 159.174 26.7663 157.321 26.7663C155.469 26.7663 153.968 25.2649 153.968 23.4128V17.7357Z" fill="#121319"/>
<path d="M92.112 51.0312V54.1392H80.254V33.8952H84.02V51.0312H92.112Z" fill="#121319"/>
<path d="M101.843 48.0072C100.844 48.0539 100.004 48.1425 99.3229 48.2732C98.6416 48.3945 98.0956 48.5532 97.6849 48.7492C97.2742 48.9452 96.9802 49.1739 96.8029 49.4352C96.6256 49.6965 96.5369 49.9812 96.5369 50.2892C96.5369 50.8959 96.7142 51.3299 97.0689 51.5912C97.4329 51.8525 97.9042 51.9832 98.4829 51.9832C99.1922 51.9832 99.8036 51.8572 100.317 51.6052C100.84 51.3439 101.348 50.9519 101.843 50.4292V48.0072ZM93.9189 41.7772C95.5709 40.2652 97.5589 39.5092 99.8829 39.5092C100.723 39.5092 101.474 39.6492 102.137 39.9292C102.8 40.1999 103.36 40.5825 103.817 41.0772C104.274 41.5625 104.62 42.1459 104.853 42.8272C105.096 43.5085 105.217 44.2552 105.217 45.0672V54.1392H103.649C103.322 54.1392 103.07 54.0925 102.893 53.9992C102.716 53.8965 102.576 53.6959 102.473 53.3972L102.165 52.3612C101.801 52.6879 101.446 52.9772 101.101 53.2292C100.756 53.4719 100.396 53.6772 100.023 53.8452C99.6496 54.0132 99.2482 54.1392 98.8189 54.2232C98.3989 54.3165 97.9322 54.3632 97.4189 54.3632C96.8122 54.3632 96.2522 54.2839 95.7389 54.1252C95.2256 53.9572 94.7822 53.7099 94.4089 53.3832C94.0356 53.0565 93.7462 52.6505 93.5409 52.1652C93.3356 51.6799 93.2329 51.1152 93.2329 50.4712C93.2329 50.1072 93.2936 49.7479 93.4149 49.3932C93.5362 49.0292 93.7322 48.6839 94.0029 48.3572C94.2829 48.0305 94.6422 47.7225 95.0809 47.4332C95.5196 47.1439 96.0562 46.8919 96.6909 46.6772C97.3349 46.4625 98.0816 46.2899 98.9309 46.1592C99.7802 46.0192 100.751 45.9352 101.843 45.9072V45.0672C101.843 44.1059 101.638 43.3965 101.227 42.9392C100.816 42.4725 100.224 42.2392 99.4489 42.2392C98.8889 42.2392 98.4222 42.3045 98.0489 42.4352C97.6849 42.5659 97.3629 42.7152 97.0829 42.8832C96.8029 43.0419 96.5462 43.1865 96.3129 43.3172C96.0889 43.4479 95.8369 43.5132 95.5569 43.5132C95.3142 43.5132 95.1089 43.4525 94.9409 43.3312C94.7729 43.2005 94.6376 43.0512 94.5349 42.8832L93.9189 41.7772Z" fill="#121319"/>
<path d="M120.85 39.7752V54.1392H118.736C118.278 54.1392 117.989 53.9292 117.868 53.5092L117.63 52.3612C117.042 52.9585 116.393 53.4439 115.684 53.8172C114.974 54.1812 114.139 54.3632 113.178 54.3632C112.394 54.3632 111.698 54.2325 111.092 53.9712C110.494 53.7005 109.99 53.3225 109.58 52.8372C109.169 52.3519 108.856 51.7779 108.642 51.1152C108.436 50.4432 108.334 49.7059 108.334 48.9032V39.7752H111.792V48.9032C111.792 49.7805 111.992 50.4619 112.394 50.9472C112.804 51.4232 113.416 51.6612 114.228 51.6612C114.825 51.6612 115.385 51.5305 115.908 51.2692C116.43 50.9985 116.925 50.6299 117.392 50.1632V39.7752H120.85Z" fill="#121319"/>
<path d="M127.512 41.5392C127.802 41.2499 128.105 40.9839 128.422 40.7412C128.749 40.4892 129.09 40.2792 129.444 40.1112C129.808 39.9339 130.196 39.7985 130.606 39.7052C131.017 39.6025 131.465 39.5512 131.95 39.5512C132.734 39.5512 133.43 39.6865 134.036 39.9572C134.643 40.2185 135.147 40.5919 135.548 41.0772C135.959 41.5532 136.267 42.1272 136.472 42.7992C136.687 43.4619 136.794 44.1945 136.794 44.9972V54.1392H133.336V44.9972C133.336 44.1199 133.136 43.4432 132.734 42.9672C132.333 42.4819 131.722 42.2392 130.9 42.2392C130.303 42.2392 129.743 42.3745 129.22 42.6452C128.698 42.9159 128.203 43.2845 127.736 43.7512V54.1392H124.278V39.7752H126.392C126.84 39.7752 127.134 39.9852 127.274 40.4052L127.512 41.5392Z" fill="#121319"/>
<path d="M150.373 42.8132C150.27 42.9439 150.168 43.0465 150.065 43.1212C149.972 43.1959 149.832 43.2332 149.645 43.2332C149.468 43.2332 149.295 43.1819 149.127 43.0792C148.959 42.9672 148.758 42.8459 148.525 42.7152C148.292 42.5752 148.012 42.4539 147.685 42.3512C147.368 42.2392 146.971 42.1832 146.495 42.1832C145.888 42.1832 145.356 42.2952 144.899 42.5192C144.442 42.7339 144.059 43.0465 143.751 43.4572C143.452 43.8679 143.228 44.3672 143.079 44.9552C142.93 45.5339 142.855 46.1919 142.855 46.9292C142.855 47.6945 142.934 48.3759 143.093 48.9732C143.261 49.5705 143.499 50.0745 143.807 50.4852C144.115 50.8865 144.488 51.1945 144.927 51.4092C145.366 51.6145 145.86 51.7172 146.411 51.7172C146.962 51.7172 147.405 51.6519 147.741 51.5212C148.086 51.3812 148.376 51.2319 148.609 51.0732C148.842 50.9052 149.043 50.7559 149.211 50.6252C149.388 50.4852 149.584 50.4152 149.799 50.4152C150.079 50.4152 150.289 50.5225 150.429 50.7372L151.423 51.9972C151.04 52.4452 150.625 52.8232 150.177 53.1312C149.729 53.4299 149.262 53.6725 148.777 53.8592C148.301 54.0365 147.806 54.1625 147.293 54.2372C146.789 54.3119 146.285 54.3492 145.781 54.3492C144.894 54.3492 144.059 54.1859 143.275 53.8592C142.491 53.5232 141.805 53.0379 141.217 52.4032C140.629 51.7685 140.162 50.9939 139.817 50.0792C139.481 49.1552 139.313 48.1052 139.313 46.9292C139.313 45.8745 139.462 44.8992 139.761 44.0032C140.069 43.0979 140.517 42.3185 141.105 41.6652C141.693 41.0025 142.421 40.4845 143.289 40.1112C144.157 39.7379 145.156 39.5512 146.285 39.5512C147.358 39.5512 148.296 39.7239 149.099 40.0692C149.911 40.4145 150.639 40.9092 151.283 41.5532L150.373 42.8132Z" fill="#121319"/>
<path d="M157.049 41.3152C157.609 40.7925 158.225 40.3679 158.897 40.0412C159.569 39.7145 160.358 39.5512 161.263 39.5512C162.047 39.5512 162.742 39.6865 163.349 39.9572C163.956 40.2185 164.46 40.5919 164.861 41.0772C165.272 41.5532 165.58 42.1272 165.785 42.7992C166 43.4619 166.107 44.1945 166.107 44.9972V54.1392H162.649V44.9972C162.649 44.1199 162.448 43.4432 162.047 42.9672C161.646 42.4819 161.034 42.2392 160.213 42.2392C159.616 42.2392 159.056 42.3745 158.533 42.6452C158.01 42.9159 157.516 43.2845 157.049 43.7512V54.1392H153.591V33.3352H157.049V41.3152Z" fill="#121319"/>
<path d="M178.65 45.3052C178.65 44.8572 178.584 44.4372 178.454 44.0452C178.332 43.6439 178.146 43.2939 177.894 42.9952C177.642 42.6965 177.32 42.4632 176.928 42.2952C176.545 42.1179 176.097 42.0292 175.584 42.0292C174.585 42.0292 173.796 42.3139 173.218 42.8832C172.648 43.4525 172.284 44.2599 172.126 45.3052H178.65ZM172.056 47.3912C172.112 48.1285 172.242 48.7679 172.448 49.3092C172.653 49.8412 172.924 50.2845 173.26 50.6392C173.596 50.9845 173.992 51.2459 174.45 51.4232C174.916 51.5912 175.43 51.6752 175.99 51.6752C176.55 51.6752 177.03 51.6099 177.432 51.4792C177.842 51.3485 178.197 51.2039 178.496 51.0452C178.804 50.8865 179.07 50.7419 179.294 50.6112C179.527 50.4805 179.751 50.4152 179.966 50.4152C180.255 50.4152 180.47 50.5225 180.61 50.7372L181.604 51.9972C181.221 52.4452 180.792 52.8232 180.316 53.1312C179.84 53.4299 179.34 53.6725 178.818 53.8592C178.304 54.0365 177.777 54.1625 177.236 54.2372C176.704 54.3119 176.186 54.3492 175.682 54.3492C174.683 54.3492 173.754 54.1859 172.896 53.8592C172.037 53.5232 171.29 53.0332 170.656 52.3892C170.021 51.7359 169.522 50.9332 169.158 49.9812C168.794 49.0199 168.612 47.9092 168.612 46.6492C168.612 45.6692 168.77 44.7499 169.088 43.8912C169.405 43.0232 169.858 42.2719 170.446 41.6372C171.043 40.9932 171.766 40.4845 172.616 40.1112C173.474 39.7379 174.44 39.5512 175.514 39.5512C176.419 39.5512 177.254 39.6959 178.02 39.9852C178.785 40.2745 179.443 40.6992 179.994 41.2592C180.544 41.8099 180.974 42.4912 181.282 43.3032C181.599 44.1059 181.758 45.0252 181.758 46.0612C181.758 46.5839 181.702 46.9385 181.59 47.1252C181.478 47.3025 181.263 47.3912 180.946 47.3912H172.056Z" fill="#121319"/>
<path d="M187.615 42.2672C188.063 41.4085 188.595 40.7365 189.211 40.2512C189.827 39.7565 190.555 39.5092 191.395 39.5092C192.057 39.5092 192.589 39.6539 192.991 39.9432L192.767 42.5332C192.72 42.7012 192.65 42.8225 192.557 42.8972C192.473 42.9625 192.356 42.9952 192.207 42.9952C192.067 42.9952 191.857 42.9719 191.577 42.9252C191.306 42.8785 191.04 42.8552 190.779 42.8552C190.396 42.8552 190.055 42.9112 189.757 43.0232C189.458 43.1352 189.187 43.2985 188.945 43.5132C188.711 43.7185 188.501 43.9705 188.315 44.2692C188.137 44.5679 187.969 44.9085 187.811 45.2912V54.1392H184.353V39.7752H186.383C186.737 39.7752 186.985 39.8405 187.125 39.9712C187.265 40.0925 187.358 40.3165 187.405 40.6432L187.615 42.2672Z" fill="#121319"/>
<path fill-rule="evenodd" clip-rule="evenodd" d="M49.152 11.4142L30.72 0.772461L12.288 11.4142V25.5667L0 32.6612V53.9446L18.432 64.5863L30.6902 57.5091L30.72 57.5263L30.7498 57.5091L43.008 64.5863L61.44 53.9446V32.6612L49.152 25.5667V11.4142ZM59.52 33.7697L47.232 26.6752V12.5227L30.72 2.98949L14.208 12.5227V26.6752L1.92 33.7697V52.8361L18.432 62.3693L30.6902 55.2921L30.72 55.3093L30.7498 55.2921L43.008 62.3693L59.52 52.8361V33.7697Z" fill="url(#paint0_linear_2412_11129)"/>
<path fill-rule="evenodd" clip-rule="evenodd" d="M49.1521 25.6031L30.7201 14.9614L12.2881 25.6031V46.8866L30.7201 57.5283L49.1521 46.8866V25.6031ZM14.2081 26.7117L30.7201 17.1785L47.2321 26.7117V45.7781L30.7201 55.3113L14.2081 45.7781V26.7117ZM28.7271 22.9563L29.2118 23.24L41.4144 30.3829L42.4868 30.9924V41.1736L42.0792 41.4604L41.6178 41.7809L28.7284 49.3257L20.985 44.8225L21.0046 27.4717L28.7271 22.9563ZM22.9063 43.7187L22.9233 28.5739L28.7266 25.1807L40.4551 32.046L40.5668 32.1095V40.1752L28.7254 47.1029L22.9063 43.7187ZM26.9455 31.0012L28.3882 30.1746L37.1995 35.3012V36.9608L28.3538 42.1074L26.911 41.2744L26.9455 31.0012ZM34.8078 36.1342L28.8366 39.6084L28.8599 32.6736L34.8078 36.1342Z" fill="url(#paint1_linear_2412_11129)"/>
<defs>
<linearGradient id="paint0_linear_2412_11129" x1="30.72" y1="96.4933" x2="94.488" y2="35.0974" gradientUnits="userSpaceOnUse">
<stop stop-color="#0FA4B7"/>
<stop offset="0.494757" stop-color="#1DC1C7"/>
<stop offset="1" stop-color="#2BE0D7"/>
</linearGradient>
<linearGradient id="paint1_linear_2412_11129" x1="27.4374" y1="100.019" x2="97.7613" y2="45.7097" gradientUnits="userSpaceOnUse">
<stop stop-color="#0FA4B7"/>
<stop offset="0.494757" stop-color="#1DC1C7"/>
<stop offset="1" stop-color="#2BE0D7"/>
</linearGradient>
</defs>
</svg>
