<svg width="206" height="42" viewBox="0 0 206 42" fill="none" xmlns="http://www.w3.org/2000/svg">
<path d="M24.6042 2.26271L28.5233 0H42.7899V41.8617H28.7912C28.6157 41.8617 28.4433 41.8155 28.2912 41.7277L13.1882 33.0079L13.1882 8.85374L15.0055 7.80451L18.2055 9.65203L16.3882 10.7013V31.1604L29.3807 38.6617H39.5899V3.2H29.3807L27.8042 4.11023L24.6042 2.26271Z" fill="#2EDFA8"/>
<path fill-rule="evenodd" clip-rule="evenodd" d="M26.4018 31.1604V10.7013L13.4092 3.2H3.2V38.6617H13.4092L14.9906 37.7486L18.1906 39.5961L14.2666 41.8617H0V0H14.2666L29.6018 8.85374V33.0079L27.7893 34.0543L24.5893 32.2068L26.4018 31.1604Z" fill="#1DB38E"/>
<path d="M145.16 9.576V32.552H142.184V16.2C142.184 15.9547 142.189 15.6933 142.2 15.416C142.221 15.1387 142.243 14.856 142.264 14.568L134.616 28.6C134.349 29.1227 133.939 29.384 133.384 29.384H132.904C132.349 29.384 131.944 29.1227 131.688 28.6L123.896 14.52C123.96 15.1173 123.992 15.6773 123.992 16.2V32.552H121V9.576H123.528C123.827 9.576 124.056 9.608 124.216 9.672C124.387 9.72533 124.547 9.88533 124.696 10.152L132.376 23.912C132.525 24.1893 132.664 24.4827 132.792 24.792C132.92 25.1013 133.043 25.4107 133.16 25.72C133.384 25.0907 133.645 24.4827 133.944 23.896L141.48 10.152C141.619 9.88533 141.768 9.72533 141.928 9.672C142.099 9.608 142.333 9.576 142.632 9.576H145.16Z" fill="#25C99B"/>
<path d="M156.632 16.04C157.826 16.04 158.904 16.2373 159.864 16.632C160.834 17.016 161.656 17.576 162.328 18.312C163.01 19.0373 163.533 19.9173 163.896 20.952C164.258 21.976 164.44 23.128 164.44 24.408C164.44 25.688 164.258 26.8453 163.896 27.88C163.533 28.9147 163.01 29.7947 162.328 30.52C161.656 31.2453 160.834 31.8053 159.864 32.2C158.904 32.584 157.826 32.776 156.632 32.776C155.426 32.776 154.338 32.584 153.368 32.2C152.408 31.8053 151.586 31.2453 150.904 30.52C150.221 29.7947 149.693 28.9147 149.32 27.88C148.957 26.8453 148.776 25.688 148.776 24.408C148.776 23.128 148.957 21.976 149.32 20.952C149.693 19.9173 150.221 19.0373 150.904 18.312C151.586 17.576 152.408 17.016 153.368 16.632C154.338 16.2373 155.426 16.04 156.632 16.04ZM156.632 30.344C158.168 30.344 159.314 29.8267 160.072 28.792C160.829 27.7573 161.208 26.3013 161.208 24.424C161.208 22.5467 160.829 21.0907 160.072 20.056C159.314 19.0107 158.168 18.488 156.632 18.488C155.074 18.488 153.912 19.0107 153.144 20.056C152.386 21.0907 152.008 22.5467 152.008 24.424C152.008 26.3013 152.386 27.7573 153.144 28.792C153.912 29.8267 155.074 30.344 156.632 30.344Z" fill="#25C99B"/>
<path d="M183.018 32.552H179.882V18.824H171.722V28.344C171.722 28.984 171.877 29.464 172.186 29.784C172.506 30.0933 172.911 30.248 173.402 30.248C173.69 30.248 173.935 30.2107 174.138 30.136C174.351 30.0613 174.533 29.9813 174.682 29.896C174.831 29.8 174.959 29.7147 175.066 29.64C175.173 29.5653 175.269 29.528 175.354 29.528C175.461 29.528 175.541 29.5547 175.594 29.608C175.658 29.6507 175.722 29.7253 175.786 29.832L176.714 31.336C176.202 31.8053 175.594 32.168 174.89 32.424C174.186 32.68 173.455 32.808 172.698 32.808C171.386 32.808 170.373 32.44 169.658 31.704C168.954 30.968 168.602 29.9173 168.602 28.552V18.824H166.714C166.533 18.824 166.378 18.7707 166.25 18.664C166.133 18.5467 166.074 18.376 166.074 18.152V16.888L168.73 16.52L169.418 11.672C169.461 11.4907 169.541 11.352 169.658 11.256C169.786 11.1493 169.946 11.096 170.138 11.096H171.722V16.552H183.018V32.552ZM183.722 11.176C183.722 11.464 183.663 11.7413 183.546 12.008C183.429 12.264 183.269 12.4933 183.066 12.696C182.874 12.888 182.645 13.0427 182.378 13.16C182.111 13.2667 181.834 13.32 181.546 13.32C181.258 13.32 180.986 13.2667 180.73 13.16C180.474 13.0427 180.245 12.888 180.042 12.696C179.85 12.4933 179.695 12.264 179.578 12.008C179.471 11.7413 179.418 11.464 179.418 11.176C179.418 10.8773 179.471 10.5947 179.578 10.328C179.695 10.0613 179.85 9.832 180.042 9.64C180.245 9.43733 180.474 9.28267 180.73 9.176C180.986 9.05867 181.258 9 181.546 9C181.834 9 182.111 9.05867 182.378 9.176C182.645 9.28267 182.874 9.43733 183.066 9.64C183.269 9.832 183.429 10.0613 183.546 10.328C183.663 10.5947 183.722 10.8773 183.722 11.176Z" fill="#25C99B"/>
<path d="M188.619 32.552V18.856L186.924 18.648C186.678 18.5947 186.476 18.5093 186.315 18.392C186.166 18.264 186.091 18.0827 186.091 17.848V16.552H188.619V15.08C188.619 14.152 188.753 13.3253 189.02 12.6C189.286 11.8747 189.665 11.2613 190.156 10.76C190.657 10.248 191.254 9.864 191.948 9.608C192.652 9.34133 193.441 9.208 194.315 9.208C195.051 9.208 195.729 9.31467 196.348 9.528L196.284 11.096C196.273 11.2347 196.23 11.3413 196.156 11.416C196.081 11.48 195.979 11.528 195.852 11.56C195.734 11.592 195.585 11.6133 195.404 11.624C195.233 11.624 195.046 11.624 194.843 11.624C194.363 11.624 193.926 11.6827 193.532 11.8C193.137 11.9173 192.801 12.1147 192.523 12.392C192.246 12.6693 192.033 13.0373 191.883 13.496C191.734 13.944 191.66 14.504 191.66 15.176V16.552H196.219V18.824H191.756V32.552H188.619Z" fill="#25C99B"/>
<path fill-rule="evenodd" clip-rule="evenodd" d="M57.8154 33.2842V9H70.6597C73.9281 9.22427 76.4828 11.9486 76.4828 15.2433V27.026C76.4828 30.4823 73.6809 33.2842 70.2246 33.2842H57.8154ZM84.5586 9H81.2237V33.3211H84.5586V9ZM61.1503 29.9493V12.32H70.2246C71.8391 12.32 73.1479 13.6288 73.1479 15.2433V27.026C73.1479 28.6405 71.8391 29.9493 70.2246 29.9493H61.1503ZM89.2432 9V33.2842H101.652C105.109 33.2842 107.911 30.4823 107.911 27.026V15.2433C107.911 11.9486 105.356 9.22427 102.087 9H89.2432ZM112.155 14.6355H115.883V18.3639H112.155V14.6355ZM115.883 23.9572H112.155V27.6856H115.883V23.9572ZM92.5781 12.32V29.9493H101.652C103.267 29.9493 104.576 28.6405 104.576 27.026V15.2433C104.576 13.6288 103.267 12.32 101.652 12.32H92.5781Z" fill="#363844"/>
</svg>
