<svg xmlns:xlink="http://www.w3.org/1999/xlink" xmlns="http://www.w3.org/2000/svg" width="1280" height="256" viewBox="0 0 210 42" fill="none">
  <path d="M24.6042 2.26271L28.5234 0H42.79V41.8617H28.7913C28.6158 41.8617 28.4433 41.8155 28.2913 41.7277L13.1882 33.0079L13.1882 8.85374L15.0055 7.80451L18.2055 9.65203L16.3882 10.7013V31.1604L29.3808 38.6617H39.59V3.2H29.3808L27.8042 4.11023L24.6042 2.26271Z" fill="#6BBDFE"/>
  <path fill-rule="evenodd" clip-rule="evenodd" d="M26.4018 31.1604V10.7013L13.4092 3.2H3.2V38.6617H13.4092L14.9906 37.7486L18.1906 39.5961L14.2666 41.8617H0V0H14.2666L29.6018 8.85374V33.0079L27.7893 34.0543L24.5893 32.2068L26.4018 31.1604Z" fill="#4598FA"/>
  <path d="M152.732 9.62681L145.712 32.1293H142.703L137.219 15.4405C137.093 15.1062 136.984 14.704 136.89 14.2339C136.775 14.7144 136.665 15.1166 136.561 15.4405L131.013 32.1293H128.02L121 9.62681H123.789C124.082 9.62681 124.327 9.69994 124.526 9.84619C124.724 9.982 124.855 10.17 124.918 10.4103L129.352 25.4694C129.436 25.7619 129.509 26.0806 129.572 26.4253C129.645 26.7701 129.718 27.1305 129.791 27.5066C129.864 27.1305 129.937 26.7701 130.01 26.4253C130.094 26.0806 130.188 25.7619 130.292 25.4694L135.37 10.4103C135.432 10.2014 135.563 10.0186 135.761 9.86186C135.97 9.70516 136.216 9.62681 136.498 9.62681H137.454C137.746 9.62681 137.987 9.69994 138.175 9.84619C138.363 9.99245 138.498 10.1805 138.582 10.4103L143.643 25.4694C143.832 26.044 143.999 26.6969 144.145 27.4282C144.27 26.7074 144.406 26.0544 144.552 25.4694L149.003 10.4103C149.055 10.2014 149.186 10.0186 149.394 9.86186C149.603 9.70516 149.849 9.62681 150.131 9.62681H152.732Z" fill="#4598FA"/>
  <path d="M162.039 25.062C160.795 25.1038 159.74 25.203 158.873 25.3597C158.006 25.506 157.301 25.7045 156.758 25.9552C156.215 26.2059 155.823 26.5037 155.583 26.8484C155.342 27.1827 155.222 27.5588 155.222 27.9767C155.222 28.3736 155.285 28.7184 155.41 29.0109C155.546 29.293 155.724 29.528 155.943 29.7161C156.173 29.8937 156.439 30.0242 156.742 30.1078C157.045 30.1914 157.374 30.2332 157.729 30.2332C158.199 30.2332 158.628 30.1862 159.014 30.0921C159.411 29.9981 159.782 29.8675 160.127 29.7004C160.472 29.5228 160.801 29.3086 161.114 29.0579C161.428 28.8072 161.736 28.5199 162.039 28.196V25.062ZM153.075 18.4335C153.963 17.5873 154.924 16.9553 155.959 16.5374C157.003 16.1195 158.147 15.9106 159.39 15.9106C160.299 15.9106 161.104 16.0621 161.804 16.365C162.504 16.6575 163.094 17.0702 163.574 17.603C164.055 18.1357 164.415 18.773 164.656 19.5147C164.906 20.2565 165.032 21.0765 165.032 21.975V32.1293H163.668C163.365 32.1293 163.136 32.0823 162.979 31.9882C162.822 31.8838 162.697 31.6957 162.603 31.4241L162.274 30.0295C161.866 30.4055 161.464 30.7398 161.067 31.0324C160.67 31.3144 160.252 31.5599 159.813 31.7689C159.385 31.9674 158.925 32.1188 158.434 32.2233C157.943 32.3278 157.4 32.38 156.805 32.38C156.178 32.38 155.588 32.2964 155.034 32.1293C154.491 31.9517 154.015 31.6853 153.608 31.3301C153.201 30.9749 152.877 30.5309 152.637 29.9981C152.407 29.4653 152.292 28.8437 152.292 28.1334C152.292 27.5066 152.459 26.9059 152.793 26.3313C153.138 25.7463 153.692 25.2239 154.454 24.7643C155.227 24.3046 156.23 23.9285 157.463 23.636C158.706 23.3435 160.231 23.1763 162.039 23.1346V21.975C162.039 20.7736 161.783 19.8751 161.271 19.2797C160.759 18.6842 160.007 18.3865 159.014 18.3865C158.346 18.3865 157.782 18.47 157.322 18.6372C156.873 18.8043 156.481 18.9924 156.147 19.2013C155.823 19.3998 155.535 19.5826 155.285 19.7498C155.044 19.9169 154.794 20.0005 154.533 20.0005C154.324 20.0005 154.141 19.9431 153.984 19.8281C153.838 19.7132 153.718 19.5774 153.624 19.4207L153.075 18.4335Z" fill="#4598FA"/>
  <path d="M172.256 9V32.1293H169.185V9H172.256Z" fill="#4598FA"/>
  <path d="M179.755 9V32.1293H176.683V9H179.755Z" fill="#4598FA"/>
  <path d="M194.665 22.3981C194.665 21.7921 194.577 21.2332 194.399 20.7213C194.232 20.2094 193.981 19.7655 193.647 19.3894C193.312 19.0133 192.905 18.7208 192.424 18.5118C191.944 18.3029 191.39 18.1984 190.763 18.1984C189.478 18.1984 188.465 18.5693 187.723 19.311C186.992 20.0527 186.527 21.0818 186.329 22.3981H194.665ZM197.188 29.8571C196.812 30.2959 196.379 30.6772 195.888 31.001C195.397 31.3144 194.874 31.5704 194.321 31.7689C193.767 31.9674 193.192 32.1136 192.597 32.2076C192.012 32.3016 191.432 32.3487 190.857 32.3487C189.761 32.3487 188.742 32.1658 187.802 31.8002C186.872 31.4241 186.062 30.8809 185.373 30.1705C184.694 29.4497 184.161 28.5617 183.774 27.5066C183.398 26.441 183.21 25.2187 183.21 23.8397C183.21 22.7324 183.383 21.7033 183.727 20.7527C184.072 19.7916 184.563 18.9558 185.2 18.2454C185.848 17.5351 186.637 16.9762 187.567 16.5687C188.496 16.1613 189.541 15.9576 190.701 15.9576C191.672 15.9576 192.565 16.1195 193.38 16.4434C194.206 16.7568 194.916 17.2164 195.512 17.8223C196.107 18.4283 196.572 19.1752 196.906 20.0632C197.251 20.9512 197.423 21.9645 197.423 23.1032C197.423 23.5733 197.371 23.892 197.267 24.0591C197.162 24.2158 196.969 24.2942 196.687 24.2942H186.25C186.282 25.2448 186.418 26.0753 186.658 26.7857C186.898 27.4857 187.227 28.0707 187.645 28.5408C188.073 29.0109 188.58 29.3609 189.165 29.5907C189.75 29.8205 190.403 29.9354 191.124 29.9354C191.803 29.9354 192.388 29.8571 192.879 29.7004C193.38 29.5437 193.809 29.3765 194.164 29.1989C194.53 29.0109 194.832 28.8385 195.073 28.6818C195.323 28.5251 195.543 28.4468 195.731 28.4468C195.982 28.4468 196.175 28.5408 196.311 28.7288L197.188 29.8571Z" fill="#4598FA"/>
  <path d="M205.568 32.38C204.283 32.38 203.291 32.0196 202.591 31.2988C201.902 30.5779 201.557 29.5489 201.557 28.2117V18.6842H199.708C199.53 18.6842 199.379 18.632 199.253 18.5275C199.138 18.4126 199.081 18.2454 199.081 18.0261V16.7881L201.666 16.4277L202.356 11.6796C202.398 11.502 202.476 11.3662 202.591 11.2722C202.716 11.1677 202.873 11.1155 203.061 11.1155H204.612V16.459H209.126V18.6842H204.612V28.008C204.612 28.6348 204.764 29.1049 205.067 29.4183C205.38 29.7213 205.777 29.8728 206.258 29.8728C206.54 29.8728 206.78 29.8362 206.979 29.7631C207.188 29.6899 207.365 29.6116 207.511 29.528C207.658 29.434 207.783 29.3504 207.888 29.2773C207.992 29.2042 208.086 29.1676 208.17 29.1676C208.274 29.1676 208.352 29.1937 208.405 29.246C208.467 29.2877 208.53 29.3609 208.593 29.4653L209.502 30.9383C209 31.398 208.405 31.7532 207.715 32.0039C207.026 32.2546 206.31 32.38 205.568 32.38Z" fill="#4598FA"/>
  <path fill-rule="evenodd" clip-rule="evenodd" d="M57.8154 33.2842V9H70.6597C73.9281 9.22427 76.4828 11.9486 76.4828 15.2433V27.026C76.4828 30.4823 73.6809 33.2842 70.2246 33.2842H57.8154ZM84.5586 9H81.2237V33.3211H84.5586V9ZM61.1503 29.9493V12.32H70.2246C71.8391 12.32 73.1479 13.6288 73.1479 15.2433V27.026C73.1479 28.6405 71.8391 29.9493 70.2246 29.9493H61.1503ZM89.2432 9V33.2842H101.652C105.109 33.2842 107.911 30.4823 107.911 27.026V15.2433C107.911 11.9486 105.356 9.22427 102.087 9H89.2432ZM112.155 14.6355H115.883V18.3639H112.155V14.6355ZM115.883 23.9572H112.155V27.6856H115.883V23.9572ZM92.5781 12.32V29.9493H101.652C103.267 29.9493 104.576 28.6405 104.576 27.026V15.2433C104.576 13.6288 103.267 12.32 101.652 12.32H92.5781Z" fill="#363844"/>
</svg>